# ProBuilder 5.2.4
# https://unity3d.com/unity/features/worldbuilding/probuilder
# 11/24/2025 8:29:20 PM

mtllib ./Dirt_Path_Outline.mtl
o Dirt Path Outline

g Dirt Path
v 0 -5.197311E-09 0
v 0 -5.197311E-09 9.5
v -6.700001 -5.197311E-09 0
v -6.700001 -5.197311E-09 9.5
v 0 -5.197311E-09 19
v -6.700001 -5.197311E-09 19
v -13.4 -5.197311E-09 0
v -13.4 -5.197311E-09 9.5
v -13.4 -5.197311E-09 19
v 2.407703 0.1260446 32.243
v -3.228714 0.1260445 35.86528
v -8.865135 0.1260445 39.48753
v 5.102138 -2.456578 38.90488
v -1.234574 -2.456574 41.08232
v -7.571232 -2.456573 43.25969
v 50.08443 -2.409632 45.20097
v 44.53242 -2.426069 48.966
v 38.98169 -2.452504 52.74176
v 58.45307 0.1255373 45.39229
v 52.68958 0.1091002 48.82599
v 44.86466 0.173267 52.37236
v 81.22734 3.176921 48.87119
v 77.85127 4.205912 54.50864
v 74.48032 5.314717 60.46779
v 91.08286 5.097779 54.04202
v 88.90802 5.724434 60.53455
v 93.01149 4.08146 48.86198
v 108.6914 5.002775 51.91565
v 106.5217 5.459076 58.42023
v 110.618 4.283688 46.73131
v 137.8376 6.602844 59.14622
v 135.6686 7.71599 65.65751
v 139.7634 5.583979 53.95518
v 149.4316 8.39132 65.11713
v 147.2565 9.502904 71.62034
v 151.3634 7.372098 59.92348
v 163.3884 9.112613 70.30384
v 160.0886 9.611443 75.75507
v 166.1967 10.04523 65.73355
v 176.3272 9.248166 77.73912
v 173.0584 8.842597 83.14618
v 179.1095 9.876434 73.14337
v 187.7762 6.681401 84.20072
v 184.5384 6.654519 89.55355
v 190.5274 6.715866 79.65881
v 198.3057 5.28404 92.81436
v 193.6902 5.726983 97.02562
v 202.2195 4.705174 89.25503
v 203.8506 5.505497 111.4949
v 199.4897 5.551112 113.5007
v 208.6773 5.667803 109.3391
v 206.6054 4.911823 123.3426
v 202.2496 4.56974 125.3551
v 211.4421 5.293771 121.1716
v 217.1188 5.792881 138.2396
v 212.2858 6.322813 140.4184
v 207.9254 6.014409 142.4441
v 226.0324 7.524531 147.2529
v 221.6993 8.068122 150.3059
v 217.772 8.607648 153.1484
v 235.2194 10.60789 159.0889
v 233.6027 12.14759 163.6381
v 237.0455 8.996197 154.0867
v 251.9113 10.78296 161.4021
v 251.7518 12.41954 166.2124
v 252.1349 9.210679 156.101
v 274.4586 6.916333 151.4221
v 275.5047 8.277094 156.6193
v 276.4934 9.60911 161.3184
v 299.1116 4.873151 139.2476
v 300.1589 5.316016 144.44
v 301.1507 6.012483 149.1389
v 313.795 4.346838 137.2608
v 314.7957 4.652256 141.9585
v 312.7316 3.918664 132.0606
v 328.2407 3.174395 135.9529
v 329.2578 3.546783 140.6616
v 327.1763 2.495533 130.7582
v 340.0161 0.3797038 125.3076
v 341.076 1.059289 130.5056
v 342.0924 1.432857 135.2251
v 352.0275 0.04722042 117.9193
v 353.8272 0.1068677 122.7314
v 354.8486 0.4811849 127.4622
v 356.1624 0.03883104 114.0631
v 359.0061 0.08062866 118.7221
v 362.103 0.02744438 122.4334
v 362.5757 -0.06373233 115.8433
v 365.696 0.0009052607 119.5563
v 359.7305 -0.23004 111.1935

vt 0 0
vt 0 9.5
vt 6.700001 0
vt 6.700001 9.5
vt 0 19
vt 6.700001 19
vt 13.4 0
vt 13.4 9.5
vt 13.4 19
vt 0 18.99914
vt 6.700001 18.99914
vt -2.407703 32.24274
vt 3.228714 35.86486
vt 13.4 18.99947
vt 3.228714 35.86522
vt 8.865135 39.48737
vt -2.337517 30.69674
vt 3.191833 34.48044
vt -5.48176 37.65549
vt 0.7345825 40.09526
vt 3.159489 33.713
vt 8.620615 37.59451
vt 0.5882862 39.30344
vt 6.727872 41.89883
vt -5.100315 38.89948
vt 1.236395 41.07692
vt -50.08263 45.19559
vt -44.53061 48.96058
vt 1.235664 41.07911
vt 7.572322 43.25648
vt -44.53134 48.9628
vt -38.98059 52.73853
vt -47.38393 35.58237
vt -42.05151 39.65248
vt -56.12779 35.78918
vt -50.59243 39.57541
vt -41.69287 38.44955
vt -36.39622 42.57425
vt -50.23468 38.29659
vt -42.79875 42.52405
vt -58.13332 43.67094
vt -52.40092 47.15635
vt -81.1031 47.20222
vt -77.85598 52.99339
vt -52.40786 46.04099
vt -44.63325 49.69689
vt -77.86114 51.89915
vt -74.62576 58.03392
vt -77.94702 52.77324
vt -74.66908 58.88547
vt -91.2082 52.29464
vt -89.08669 58.79993
vt -81.2317 46.96834
vt -77.94451 52.75037
vt -93.05051 46.9589
vt -91.20552 52.26748
vt -91.11417 54.22304
vt -88.94347 60.74711
vt -108.7217 52.08633
vt -106.555 58.60567
vt -93.09873 47.95435
vt -91.20888 53.24715
vt -110.7007 45.77729
vt -108.802 51.0133
vt -108.7994 51.8442
vt -106.6468 58.37043
vt -137.9836 59.09883
vt -135.8544 65.68517
vt -110.6533 46.72305
vt -108.7335 51.95953
vt -139.8096 54.01957
vt -137.8934 59.30487
vt -137.9906 57.89144
vt -135.8879 64.51859
vt -149.667 63.9686
vt -147.5581 70.58758
vt -139.8734 52.63924
vt -137.9949 57.94632
vt -151.5416 58.74096
vt -149.6572 64.05073
vt -149.3349 65.86868
vt -147.1482 72.46236
vt -163.2834 71.12755
vt -159.9785 76.58058
vt -151.4137 57.01749
vt -149.5812 62.34543
vt -166.4271 62.97778
vt -163.5464 67.28194
vt -163.0242 71.14789
vt -159.7104 76.61344
vt -175.9524 78.60271
vt -172.6979 83.95887
vt -166.4777 65.36608
vt -163.6061 69.99189
vt -179.3395 72.86591
vt -176.5172 77.47031
vt -173.4856 71.76501
vt -170.301 77.2371
vt -185.1757 78.30432
vt -181.9709 83.66451
vt -175.7423 63.52956
vt -173.0816 68.23892
vt -187.4994 70.20608
vt -184.7829 74.73365
vt -186.5124 82.77362
vt -183.2889 88.13509
vt -197.1229 91.40117
vt -192.4865 95.60304
vt -188.6315 77.39548
vt -185.9008 81.94987
vt -200.4739 87.01807
vt -196.5201 90.55694
vt -197.5087 93.35445
vt -192.874 97.56782
vt -203.0265 112.0443
vt -198.6722 114.0414
vt -201.1855 90.55326
vt -197.2378 94.12223
vt -207.5449 110.6917
vt -202.7469 112.8013
vt -203.5907 110.8897
vt -199.2304 112.8975
vt -206.3622 122.7484
vt -202.0187 124.7794
vt -208.7448 109.1986
vt -203.9161 111.3558
vt -211.5026 121.0387
vt -206.6599 123.2189
vt -211.1894 121.1413
vt -206.3376 123.3122
vt -216.8878 138.2093
vt -212.1126 140.3904
vt -206.0506 122.4222
vt -201.6825 124.437
vt -211.8442 139.5182
vt -207.4749 141.5479
vt -216.999 137.2295
vt -212.1581 139.4548
vt -225.8838 146.4354
vt -221.5427 149.521
vt -211.7713 138.8161
vt -207.4027 140.8476
vt -221.3163 148.7316
vt -217.4676 151.6374
vt -221.8455 146.3866
vt -217.9388 149.3076
vt -235.4441 155.4122
vt -233.8806 160.2063
vt -226.1079 145.4269
vt -221.7818 148.5377
vt -237.1383 152.3901
vt -235.3321 157.6128
vt -234.7099 157.0714
vt -233.0407 161.8562
vt -251.3857 159.5044
vt -251.1695 164.583
vt -236.7093 151.7082
vt -234.8396 156.9483
vt -251.787 153.8183
vt -251.5204 159.3451
vt -251.5464 155.2557
vt -251.2586 160.7822
vt -273.9454 150.378
vt -274.9348 155.7597
vt -251.3304 159.3546
vt -251.1098 164.4334
vt -275.0012 154.3048
vt -275.9393 159.1945
vt -274.5061 145.6478
vt -275.6086 151.0089
vt -299.0509 133.0894
vt -300.1159 138.2208
vt -275.6092 151.7235
vt -276.6218 156.6029
vt -300.206 139.077
vt -301.2102 143.7851
vt -300.1863 143.4057
vt -301.1825 148.155
vt -313.8161 136.1496
vt -314.8187 140.8408
vt -298.9245 139.7313
vt -299.9614 144.9446
vt -312.5626 132.5154
vt -313.616 137.7352
vt -312.6227 139.021
vt -313.5981 143.7338
vt -327.1154 137.7088
vt -328.1024 142.4381
vt -311.1388 134.5702
vt -312.1599 139.7965
vt -325.6529 133.2612
vt -326.6525 138.507
vt -325.2846 134.5441
vt -326.2757 139.7973
vt -338.2717 129.0321
vt -339.2582 134.2886
vt -325.5158 139.6102
vt -326.4813 144.3444
vt -338.5118 134.1334
vt -339.4764 138.8784
vt -339.6612 122.5323
vt -340.7516 127.7683
vt -351.6438 115.0901
vt -353.4443 119.8644
vt -340.9581 130.8029
vt -341.9656 135.539
vt -353.7281 123.0012
vt -354.7405 127.7487
vt -352.019 117.8899
vt -353.8191 122.7023
vt -356.1538 114.0336
vt -358.9977 118.6925
vt -353.423 121.2853
vt -354.4612 126.0272
vt -358.5947 117.2665
vt -361.6854 120.9552
vt -358.8303 118.8444
vt -361.9273 122.556
vt -362.4027 115.9654
vt -365.5195 119.68
vt -355.7892 114.5858
vt -358.6281 119.2478
vt -359.3658 111.7142
vt -362.2005 116.3717

vn 0 1 0
vn 0 0.9999547 -0.009517398
vn -0.002120876 0.999962 -0.008058861
vn -0.004241751 0.9999692 -0.006600325
vn 0 0.999972 -0.007473402
vn -0.001730657 0.9999758 -0.006429687
vn -0.003461313 0.9999795 -0.005385973
vn 0.1857096 0.9391525 0.2889715
vn 0.1610845 0.9233594 0.3430445
vn 0.1364595 0.9075662 0.3971176
vn 0.2309271 0.9041854 0.3593349
vn 0.2037858 0.8717716 0.436706
vn 0.1766446 0.8393577 0.5140771
vn -0.0007414274 0.9999974 -0.002159096
vn -0.0009363112 0.9999965 0.0002691944
vn -0.001131195 0.9999957 0.002697484
vn -0.0004438827 0.9999991 -0.00129257
vn -0.0008042739 0.9999923 0.001998155
vn -0.001164665 0.9999853 0.00528888
vn -0.2602284 0.8876851 -0.3798636
vn -0.2660082 0.8686097 -0.4159975
vn -0.2717881 0.8495343 -0.4521313
vn -0.2779736 0.8721756 -0.4025424
vn -0.2992824 0.7446831 -0.5605403
vn -0.3205912 0.6171905 -0.7185382
vn -0.1050304 0.9795511 -0.1716051
vn -0.1042326 0.9726207 -0.2049069
vn -0.1034349 0.9656904 -0.2382087
vn -0.102195 0.9646424 -0.2429429
vn -0.1024367 0.9652571 -0.2403715
vn -0.1026784 0.9658718 -0.2378
vn -0.07337286 0.972191 -0.2223984
vn -0.05055759 0.9831254 -0.1638188
vn -0.02774233 0.9940599 -0.1052392
vn -0.0747925 0.9721214 -0.2222296
vn -0.07404108 0.9726329 -0.2202235
vn -0.07328966 0.9731443 -0.2182174
vn -0.006492409 0.995143 -0.0982255
vn 0.0002066966 0.9964129 -0.08295505
vn 0.006905802 0.9976829 -0.06768458
vn -0.03608101 0.9780291 -0.2053222
vn -0.02392401 0.9839367 -0.173495
vn -0.01176701 0.9898443 -0.1416679
vn -0.03449391 0.9960859 -0.08138227
vn -0.03313402 0.9897381 -0.1300416
vn -0.03177413 0.9833903 -0.1787009
vn -0.009278358 0.9899997 -0.1407646
vn -0.007426529 0.9854345 -0.167676
vn -0.005574701 0.9808694 -0.1945874
vn -0.05544351 0.9809523 -0.1861686
vn -0.04362272 0.9771609 -0.207975
vn 0.01038688 0.9862223 -0.1650995
vn 0.01396101 0.9914081 -0.1228404
vn 0.01753515 0.9965938 -0.0805814
vn -0.08757384 0.9708544 -0.2230978
vn -0.09491894 0.9779835 -0.04245631
vn -0.102264 0.9851127 0.1381852
vn 0.03114397 0.9968914 -0.07237066
vn 0.02169987 0.9967177 0.004893258
vn 0.01225578 0.996544 0.08215718
vn -0.07576071 0.9850891 0.1544659
vn -0.07068335 0.9891502 0.1252625
vn -0.06560597 0.9932113 0.09605908
vn 0.1327684 0.9791561 0.1537073
vn 0.1356272 0.9827693 0.1212135
vn 0.138486 0.9863825 0.0887196
vn 0.1426413 0.9653932 0.2183335
vn 0.1517376 0.9733938 0.161601
vn 0.1608339 0.9813945 0.1048685
vn 0.08557674 0.9947136 0.05675825
vn 0.09195326 0.9949313 0.02992795
vn 0.09832977 0.9951491 0.003097644
vn 0.1097311 0.9912037 0.0739886
vn 0.1241402 0.9907604 0.03263953
vn 0.1385492 0.9903172 -0.008709551
vn 0.06682152 0.9972627 -0.03165724
vn 0.04002406 0.9985785 -0.0128197
vn 0.01322661 0.9998944 0.006017844
vn 0.08023342 0.9940667 -0.0734435
vn 0.02294394 0.9967377 -0.03754834
vn -0.03434554 0.9994087 -0.001653175
vn 0.03022857 0.9986172 0.04301091
vn -0.002985204 0.9969133 0.06691399
vn -0.03619898 0.9952095 0.09081707
vn -0.01765098 0.9992063 0.03570975
vn -0.0343133 0.9979961 0.04875494
vn -0.05097561 0.9967859 0.06180013
vn -0.07987506 0.9968016 -0.002582878
vn -0.008688474 0.994768 -0.05270205
vn 0.06249811 0.9927345 -0.1028212
vn -0.1005313 0.9937427 -0.04867128
vn -0.09763411 0.9939279 -0.05062316
vn -0.09473687 0.9941131 -0.05257504
vn 0.01559799 0.97895 -0.2035035
vn 0.008117726 0.9818107 -0.188961
vn 0.0006374606 0.9846714 -0.1744185
vn -0.1050094 0.9916342 -0.07506448
vn -0.06362893 0.9838854 -0.1455395
vn -0.02224842 0.9761366 -0.2160145
vn -0.03308375 0.9725559 -0.2303052
vn -0.01629214 0.9599144 -0.2753663
vn 0.0004994689 0.947273 -0.3204274
vn -0.01207651 0.9813458 -0.1918712
vn 0.00223004 0.9673884 -0.2465145
vn 0.01653659 0.953431 -0.3011578
vn 0.03297889 0.9502046 -0.3098768
vn 0.0321634 0.9483814 -0.3154414
vn 0.03134791 0.9465582 -0.321006
vn 0.02620121 0.9542404 -0.2978904
vn 0.02768996 0.9564441 -0.2904927
vn 0.02917871 0.9586479 -0.2830949
vn 0.03927179 0.9584321 -0.2826053
vn 0.04423553 0.9610904 -0.2724209
vn 0.04919928 0.9637487 -0.2622365
vn 0.03548416 0.9464689 -0.3208386
vn 0.04418829 0.9521213 -0.3017277
vn 0.05289242 0.9577736 -0.2826167
vn -0.04089672 0.9685678 -0.2453645
vn 0.01474226 0.9805887 -0.1721104
vn 0.07038124 0.9926096 -0.0988563
vn -0.01737955 0.9629036 -0.2692856
vn 0.02371383 0.9739714 -0.2144833
vn 0.06480722 0.9850391 -0.1596809
vn -0.006197161 0.9893631 -0.1453345
vn 0.02620032 0.992328 -0.1112627
vn 0.05859781 0.9952928 -0.07719093
vn 0.02256513 0.9957331 -0.08947849
vn 0.02374632 0.9958105 -0.08828759
vn 0.02492752 0.9958879 -0.08709668
vn 0.07341344 0.9940662 -0.08026703
vn 0.07049538 0.9937108 -0.08671238
vn 0.06757732 0.9933554 -0.09315772
vn 0.0886492 0.9910576 -0.09973004
vn 0.07793178 0.989261 -0.1212729
vn 0.06721437 0.9874644 -0.1428158
vn 0.09894542 0.983897 -0.1488511
vn 0.1187015 0.987496 -0.103738
vn -0.04647092 0.9916645 -0.1201749
vn 0.004044009 0.9948185 -0.07647484
vn 0.05455894 0.9979725 -0.03277481
vn 0.02327686 0.996205 -0.08386716
vn -0.007065622 0.9999275 -0.009751781
vn -0.004170792 0.9999466 -0.008972075
vn -0.001275962 0.9999657 -0.008192369
vn -0.04797316 0.9964978 -0.06848895
vn -0.001057621 0.9975793 -0.04622151
vn 0.04585791 0.9986607 -0.02395408
vn 0.03106523 0.99945 -0.01159932
vn 0.0135741 0.9996713 -0.01285713
vn -0.003917038 0.9998927 -0.01411494
vn 0.0456246 0.9982804 -0.03680475
vn 0.02669158 0.9987153 -0.03864427
vn 0.00775857 0.9991501 -0.04048378

usemtl ProBuilderDefault
f 3/3/1 4/4/1 2/2/1 1/1/1
f 4/4/1 6/6/1 5/5/1 2/2/1
f 7/7/1 8/8/1 4/4/1 3/3/1
f 8/8/1 9/9/1 6/6/1 4/4/1
f 11/13/4 10/12/3 5/10/2 6/11/3
f 12/16/7 11/15/6 6/11/5 9/14/6
f 14/20/10 13/19/9 10/17/8 11/18/9
f 15/24/13 14/23/12 11/21/11 12/22/12
f 17/28/16 16/27/15 13/25/14 14/26/15
f 18/32/19 17/31/18 14/29/17 15/30/18
f 20/36/22 19/35/21 16/33/20 17/34/21
f 21/40/25 20/39/24 17/37/23 18/38/24
f 23/44/28 22/43/27 19/41/26 20/42/27
f 24/48/31 23/47/30 20/45/29 21/46/30
f 26/52/34 25/51/33 23/49/32 24/50/33
f 25/56/37 27/55/36 22/53/35 23/54/36
f 29/60/40 28/59/39 25/57/38 26/58/39
f 28/64/43 30/63/42 27/61/41 25/62/42
f 32/68/46 31/67/45 28/65/44 29/66/45
f 31/72/49 33/71/48 30/69/47 28/70/48
f 35/76/50 34/75/50 31/73/50 32/74/50
f 34/80/51 36/79/51 33/77/51 31/78/51
f 38/84/54 37/83/53 34/81/52 35/82/53
f 37/88/57 39/87/56 36/85/55 34/86/56
f 41/92/60 40/91/59 37/89/58 38/90/59
f 40/96/63 42/95/62 39/93/61 37/94/62
f 44/100/66 43/99/65 40/97/64 41/98/65
f 43/104/69 45/103/68 42/101/67 40/102/68
f 47/108/72 46/107/71 43/105/70 44/106/71
f 46/112/75 48/111/74 45/109/73 43/110/74
f 50/116/78 49/115/77 46/113/76 47/114/77
f 49/120/81 51/119/80 48/117/79 46/118/80
f 53/124/84 52/123/83 49/121/82 50/122/83
f 52/128/87 54/127/86 51/125/85 49/126/86
f 56/132/90 55/131/89 54/129/88 52/130/89
f 57/136/93 56/135/92 52/133/91 53/134/92
f 59/140/96 58/139/95 55/137/94 56/138/95
f 60/144/99 59/143/98 56/141/97 57/142/98
f 62/148/102 61/147/101 59/145/100 60/146/101
f 61/152/105 63/151/104 58/149/103 59/150/104
f 65/156/108 64/155/107 61/153/106 62/154/107
f 64/160/111 66/159/110 63/157/109 61/158/110
f 68/164/114 67/163/113 66/161/112 64/162/113
f 69/168/117 68/167/116 64/165/115 65/166/116
f 71/172/120 70/171/119 67/169/118 68/170/119
f 72/176/123 71/175/122 68/173/121 69/174/122
f 74/180/126 73/179/125 71/177/124 72/178/125
f 73/184/129 75/183/128 70/181/127 71/182/128
f 77/188/132 76/187/131 73/185/130 74/186/131
f 76/192/135 78/191/134 75/189/133 73/190/134
f 80/196/136 79/195/136 78/193/136 76/194/136
f 81/200/137 80/199/137 76/197/137 77/198/137
f 83/204/140 82/203/139 79/201/138 80/202/139
f 84/208/141 83/207/141 80/205/141 81/206/141
f 86/212/144 85/211/143 82/209/142 83/210/143
f 87/216/147 86/215/146 83/213/145 84/214/146
f 89/220/150 88/219/149 86/217/148 87/218/149
f 88/224/153 90/223/152 85/221/151 86/222/152

